<svg width="24" height="20" viewBox="0 0 24 20" fill="none" xmlns="http://www.w3.org/2000/svg">
<path d="M11.6694 2.48913C12.8437 0.925218 14.7274 0 16.879 0C18.5916 0.00193039 20.2336 0.683141 21.4447 1.89418C22.6557 3.10522 23.3369 4.74719 23.3388 6.45986C23.3388 13.7532 12.5248 19.6567 12.0643 19.9005C11.9429 19.9658 11.8072 20 11.6694 20C11.5316 20 11.3959 19.9658 11.2745 19.9005C10.814 19.6567 0 13.7532 0 6.45986C0.00193039 4.74719 0.683141 3.10522 1.89418 1.89418C3.10522 0.683141 4.74719 0.00193039 6.45986 0C8.61141 0 10.4952 0.925218 11.6694 2.48913Z" fill="black"/>
</svg>
